IKResults
version=1
nRows=8
nColumns=79
inDegrees=yes
endheader
time	/jointset/ground_pelvis/pelvis_tilt/value	/jointset/ground_pelvis/pelvis_tilt/speed	/jointset/ground_pelvis/pelvis_list/value	/jointset/ground_pelvis/pelvis_list/speed	/jointset/ground_pelvis/pelvis_rotation/value	/jointset/ground_pelvis/pelvis_rotation/speed	/jointset/ground_pelvis/pelvis_tx/value	/jointset/ground_pelvis/pelvis_tx/speed	/jointset/ground_pelvis/pelvis_ty/value	/jointset/ground_pelvis/pelvis_ty/speed	/jointset/ground_pelvis/pelvis_tz/value	/jointset/ground_pelvis/pelvis_tz/speed	/jointset/hip_r/hip_flexion_r/value	/jointset/hip_r/hip_flexion_r/speed	/jointset/hip_r/hip_adduction_r/value	/jointset/hip_r/hip_adduction_r/speed	/jointset/hip_r/hip_rotation_r/value	/jointset/hip_r/hip_rotation_r/speed	/jointset/walker_knee_r/knee_angle_r/value	/jointset/walker_knee_r/knee_angle_r/speed	/jointset/patellofemoral_r/knee_angle_r_beta/value	/jointset/patellofemoral_r/knee_angle_r_beta/speed	/jointset/ankle_r/ankle_angle_r/value	/jointset/ankle_r/ankle_angle_r/speed	/jointset/subtalar_r/subtalar_angle_r/value	/jointset/subtalar_r/subtalar_angle_r/speed	/jointset/mtp_r/mtp_angle_r/value	/jointset/mtp_r/mtp_angle_r/speed	/jointset/hip_l/hip_flexion_l/value	/jointset/hip_l/hip_flexion_l/speed	/jointset/hip_l/hip_adduction_l/value	/jointset/hip_l/hip_adduction_l/speed	/jointset/hip_l/hip_rotation_l/value	/jointset/hip_l/hip_rotation_l/speed	/jointset/walker_knee_l/knee_angle_l/value	/jointset/walker_knee_l/knee_angle_l/speed	/jointset/patellofemoral_l/knee_angle_l_beta/value	/jointset/patellofemoral_l/knee_angle_l_beta/speed	/jointset/ankle_l/ankle_angle_l/value	/jointset/ankle_l/ankle_angle_l/speed	/jointset/subtalar_l/subtalar_angle_l/value	/jointset/subtalar_l/subtalar_angle_l/speed	/jointset/mtp_l/mtp_angle_l/value	/jointset/mtp_l/mtp_angle_l/speed	/jointset/back/lumbar_extension/value	/jointset/back/lumbar_extension/speed	/jointset/back/lumbar_bending/value	/jointset/back/lumbar_bending/speed	/jointset/back/lumbar_rotation/value	/jointset/back/lumbar_rotation/speed	/jointset/acromial_r/arm_flex_r/value	/jointset/acromial_r/arm_flex_r/speed	/jointset/acromial_r/arm_add_r/value	/jointset/acromial_r/arm_add_r/speed	/jointset/acromial_r/arm_rot_r/value	/jointset/acromial_r/arm_rot_r/speed	/jointset/elbow_r/elbow_flex_r/value	/jointset/elbow_r/elbow_flex_r/speed	/jointset/radioulnar_r/pro_sup_r/value	/jointset/radioulnar_r/pro_sup_r/speed	/jointset/radius_hand_r/wrist_flex_r/value	/jointset/radius_hand_r/wrist_flex_r/speed	/jointset/radius_hand_r/wrist_dev_r/value	/jointset/radius_hand_r/wrist_dev_r/speed	/jointset/acromial_l/arm_flex_l/value	/jointset/acromial_l/arm_flex_l/speed	/jointset/acromial_l/arm_add_l/value	/jointset/acromial_l/arm_add_l/speed	/jointset/acromial_l/arm_rot_l/value	/jointset/acromial_l/arm_rot_l/speed	/jointset/elbow_l/elbow_flex_l/value	/jointset/elbow_l/elbow_flex_l/speed	/jointset/radioulnar_l/pro_sup_l/value	/jointset/radioulnar_l/pro_sup_l/speed	/jointset/radius_hand_l/wrist_flex_l/value	/jointset/radius_hand_l/wrist_flex_l/speed	/jointset/radius_hand_l/wrist_dev_l/value	/jointset/radius_hand_l/wrist_dev_l/speed
      6.08000000	     10.48895912	      0.00000000	     -4.58426065	      0.00000000	      0.43559353	      0.00000000	      0.00000000	      0.00000000	      0.94000000	      0.00000000	      0.00000000	      0.00000000	     33.99171011	      0.00000000	     -9.78587351	      0.00000000	      0.00000000	      0.00000000	     55.89036166	      0.00000000	      0.97547083	      0.00000000	     -4.08627739	      0.00000000	      0.00000000	      0.00000000	      0.00000000	      0.00000000	     33.99171011	      0.00000000	     -9.78587351	      0.00000000	      0.00000000	      0.00000000	     55.89036166	      0.00000000	      0.97547083	      0.00000000	     -4.08627739	      0.00000000	      0.00000000	      0.00000000	      0.00000000	      0.00000000	     -9.36644246	      0.00000000	      4.61302596	      0.00000000	      5.21072679	      0.00000000	     19.71529736	      0.00000000	    -16.73829562	      0.00000000	     -2.75193871	      0.00000000	     40.68263644	      0.00000000	     45.29393365	      0.00000000	      0.00000000	      0.00000000	      4.98958359	      0.00000000	      2.01587074	      0.00000000	      1.67846680	      0.00000000	      1.36191811	      0.00000000	      0.09276546	      0.00000000	     45.29393365	      0.00000000	      0.00000000	      0.00000000	      4.98958359	      0.00000000
      6.10000000	     10.50793231	      0.00000000	     -4.59309417	      0.00000000	      0.40982265	      0.00000000	      0.00000000	      0.00000000	      0.94000000	      0.00000000	      0.00000000	      0.00000000	     34.08272311	      0.00000000	     -9.79021253	      0.00000000	      0.00000000	      0.00000000	     55.92315617	      0.00000000	      0.97604320	      0.00000000	     -4.09580096	      0.00000000	      0.00000000	      0.00000000	      0.00000000	      0.00000000	     34.08272311	      0.00000000	     -9.79021253	      0.00000000	      0.00000000	      0.00000000	     55.92315617	      0.00000000	      0.97604320	      0.00000000	     -4.09580096	      0.00000000	      0.00000000	      0.00000000	      0.00000000	      0.00000000	     -9.44983979	      0.00000000	      4.61136279	      0.00000000	      5.14955708	      0.00000000	     19.63813134	      0.00000000	    -16.88618508	      0.00000000	     -3.54986583	      0.00000000	     44.82147550	      0.00000000	     45.28888897	      0.00000000	      0.00000000	      0.00000000	      4.98989843	      0.00000000	      2.09275300	      0.00000000	      1.67438474	      0.00000000	      1.31780780	      0.00000000	      0.09345850	      0.00000000	     45.28888897	      0.00000000	      0.00000000	      0.00000000	      4.98989843	      0.00000000
      6.12000000	     10.47677124	      0.00000000	     -4.56056705	      0.00000000	      0.34265745	      0.00000000	      0.00000000	      0.00000000	      0.94000000	      0.00000000	      0.00000000	      0.00000000	     34.14852402	      0.00000000	     -9.79328022	      0.00000000	      0.00000000	      0.00000000	     55.94703102	      0.00000000	      0.97645990	      0.00000000	     -4.10265788	      0.00000000	      0.00000000	      0.00000000	      0.00000000	      0.00000000	     34.14852402	      0.00000000	     -9.79328022	      0.00000000	      0.00000000	      0.00000000	     55.94703102	      0.00000000	      0.97645990	      0.00000000	     -4.10265788	      0.00000000	      0.00000000	      0.00000000	      0.00000000	      0.00000000	     -9.52649448	      0.00000000	      4.59155102	      0.00000000	      5.07244693	      0.00000000	     20.23522320	      0.00000000	    -17.12087880	      0.00000000	     -3.82962668	      0.00000000	     48.24523012	      0.00000000	     45.28530299	      0.00000000	      0.00000000	      0.00000000	      4.99011745	      0.00000000	      2.23103976	      0.00000000	      1.72760286	      0.00000000	      1.26108629	      0.00000000	      0.09315960	      0.00000000	     45.28530299	      0.00000000	      0.00000000	      0.00000000	      4.99011745	      0.00000000
      6.14000000	     10.52074438	      0.00000000	     -4.57278762	      0.00000000	      0.29221216	      0.00000000	      0.00000000	      0.00000000	      0.94000000	      0.00000000	      0.00000000	      0.00000000	     34.20935592	      0.00000000	     -9.79616540	      0.00000000	      0.00000000	      0.00000000	     55.96880620	      0.00000000	      0.97683995	      0.00000000	     -4.10902023	      0.00000000	      0.00000000	      0.00000000	      0.00000000	      0.00000000	     34.20935592	      0.00000000	     -9.79616540	      0.00000000	      0.00000000	      0.00000000	     55.96880620	      0.00000000	      0.97683995	      0.00000000	     -4.10902023	      0.00000000	      0.00000000	      0.00000000	      0.00000000	      0.00000000	     -9.53626580	      0.00000000	      4.61400930	      0.00000000	      5.19970554	      0.00000000	     20.70569205	      0.00000000	    -17.68826876	      0.00000000	     -4.00003700	      0.00000000	     51.17442921	      0.00000000	     45.28194257	      0.00000000	      0.00000000	      0.00000000	      4.99032532	      0.00000000	      2.13582582	      0.00000000	      1.78650346	      0.00000000	      1.48398022	      0.00000000	      0.09220074	      0.00000000	     45.28194257	      0.00000000	      0.00000000	      0.00000000	      4.99032532	      0.00000000
      6.16000000	     10.53896405	      0.00000000	     -4.59361015	      0.00000000	      0.24514108	      0.00000000	      0.00000000	      0.00000000	      0.94000000	      0.00000000	      0.00000000	      0.00000000	     34.26705832	      0.00000000	     -9.79885747	      0.00000000	      0.00000000	      0.00000000	     55.98956134	      0.00000000	      0.97720219	      0.00000000	     -4.11503712	      0.00000000	      0.00000000	      0.00000000	      0.00000000	      0.00000000	     34.26705832	      0.00000000	     -9.79885747	      0.00000000	      0.00000000	      0.00000000	     55.98956134	      0.00000000	      0.97720219	      0.00000000	     -4.11503712	      0.00000000	      0.00000000	      0.00000000	      0.00000000	      0.00000000	     -9.58737520	      0.00000000	      4.63531965	      0.00000000	      5.25435148	      0.00000000	     21.43494914	      0.00000000	    -18.18929061	      0.00000000	     -3.92947028	      0.00000000	     54.12928813	      0.00000000	     45.27879436	      0.00000000	      0.00000000	      0.00000000	      4.99051691	      0.00000000	      2.13944163	      0.00000000	      1.78754934	      0.00000000	      1.57873415	      0.00000000	      0.09328513	      0.00000000	     45.27879436	      0.00000000	      0.00000000	      0.00000000	      4.99051691	      0.00000000
      6.18000000	     10.49816197	      0.00000000	     -4.61397175	      0.00000000	      0.18758991	      0.00000000	      0.00000000	      0.00000000	      0.94000000	      0.00000000	      0.00000000	      0.00000000	     34.27419447	      0.00000000	     -9.79931611	      0.00000000	      0.00000000	      0.00000000	     55.99161693	      0.00000000	      0.97723807	      0.00000000	     -4.11583681	      0.00000000	      0.00000000	      0.00000000	      0.00000000	      0.00000000	     34.27419447	      0.00000000	     -9.79931611	      0.00000000	      0.00000000	      0.00000000	     55.99161693	      0.00000000	      0.97723807	      0.00000000	     -4.11583681	      0.00000000	      0.00000000	      0.00000000	      0.00000000	      0.00000000	     -9.57382223	      0.00000000	      4.68030996	      0.00000000	      5.43600202	      0.00000000	     22.60345791	      0.00000000	    -18.79043724	      0.00000000	     -3.53634515	      0.00000000	     56.42722462	      0.00000000	     45.27829163	      0.00000000	      0.00000000	      0.00000000	      4.99055526	      0.00000000	      2.14664670	      0.00000000	      1.81757676	      0.00000000	      1.74285000	      0.00000000	      0.09417073	      0.00000000	     45.27829163	      0.00000000	      0.00000000	      0.00000000	      4.99055526	      0.00000000
      6.20000000	     10.38398467	      0.00000000	     -4.58830042	      0.00000000	      0.11484806	      0.00000000	      0.00000000	      0.00000000	      0.94000000	      0.00000000	      0.00000000	      0.00000000	     34.27749994	      0.00000000	     -9.79952763	      0.00000000	      0.00000000	      0.00000000	     55.99257176	      0.00000000	      0.97725473	      0.00000000	     -4.11620689	      0.00000000	      0.00000000	      0.00000000	      0.00000000	      0.00000000	     34.27749994	      0.00000000	     -9.79952763	      0.00000000	      0.00000000	      0.00000000	     55.99257176	      0.00000000	      0.97725473	      0.00000000	     -4.11620689	      0.00000000	      0.00000000	      0.00000000	      0.00000000	      0.00000000	     -9.38582219	      0.00000000	      4.61487668	      0.00000000	      5.65093758	      0.00000000	     24.00601652	      0.00000000	    -19.51331825	      0.00000000	     -2.98965233	      0.00000000	     58.29689507	      0.00000000	     45.27805956	      0.00000000	      0.00000000	      0.00000000	      4.99057290	      0.00000000	      2.04270804	      0.00000000	      1.79635973	      0.00000000	      2.02478935	      0.00000000	      0.09433347	      0.00000000	     45.27805956	      0.00000000	      0.00000000	      0.00000000	      4.99057290	      0.00000000
      6.22000000	     10.39848895	      0.00000000	     -4.63851043	      0.00000000	      0.09389579	      0.00000000	      0.00000000	      0.00000000	      0.94000000	      0.00000000	      0.00000000	      0.00000000	     34.32220188	      0.00000000	     -9.80159242	      0.00000000	      0.00000000	      0.00000000	     56.00876161	      0.00000000	      0.97753730	      0.00000000	     -4.12085702	      0.00000000	      0.00000000	      0.00000000	      0.00000000	      0.00000000	     34.32220188	      0.00000000	     -9.80159242	      0.00000000	      0.00000000	      0.00000000	     56.00876161	      0.00000000	      0.97753730	      0.00000000	     -4.12085702	      0.00000000	      0.00000000	      0.00000000	      0.00000000	      0.00000000	     -9.42558522	      0.00000000	      4.72338092	      0.00000000	      5.93319322	      0.00000000	     25.45135089	      0.00000000	    -20.35267456	      0.00000000	     -2.46412694	      0.00000000	     60.66589949	      0.00000000	     45.27564061	      0.00000000	      0.00000000	      0.00000000	      4.99071938	      0.00000000	      2.03698782	      0.00000000	      1.88610184	      0.00000000	      2.40618556	      0.00000000	      0.09464537	      0.00000000	     45.27564061	      0.00000000	      0.00000000	      0.00000000	      4.99071938	      0.00000000
